<?xml version="1.0" standalone="no"?>
<!DOCTYPE svg PUBLIC "-//W3C//DTD SVG 20010904//EN"
 "http://www.w3.org/TR/2001/REC-SVG-20010904/DTD/svg10.dtd">
<svg version="1.0" xmlns="http://www.w3.org/2000/svg"
 width="500.000000pt" height="500.000000pt" viewBox="0 0 500.000000 500.000000"
 preserveAspectRatio="xMidYMid meet">

<g transform="translate(0.000000,500.000000) scale(0.100000,-0.100000)"
fill="#000000" stroke="none">
<path d="M2024 4318 c-7 -12 -17 -151 -16 -243 0 -32 6 -101 11 -136 1 -3 12
-11 25 -17 44 -20 58 3 62 103 2 54 0 91 -6 95 -7 4 -8 15 -2 31 6 15 5 52 -2
99 -11 70 -13 75 -38 78 -14 2 -30 -3 -34 -10z"/>
<path d="M2428 4231 c-9 -11 -16 -28 -16 -38 1 -10 -4 -35 -11 -55 -14 -43 -9
-174 8 -191 15 -15 61 11 73 43 17 42 26 214 14 246 -8 20 -49 17 -68 -5z"/>
<path d="M2909 4207 c-9 -7 -22 -30 -29 -52 -7 -22 -17 -45 -22 -52 -5 -7 -7
-16 -4 -22 4 -5 0 -16 -8 -23 -45 -45 -13 -147 47 -148 12 0 20 10 24 30 3 17
10 33 14 36 5 3 9 15 9 28 0 12 5 27 10 32 13 13 40 152 33 170 -6 17 -52 18
-74 1z"/>
<path d="M1542 4108 c-17 -17 -15 -61 5 -105 66 -153 97 -197 134 -191 20 2
24 9 25 38 1 19 -7 53 -17 74 -11 22 -19 48 -19 59 0 10 -14 39 -32 65 -48 70
-71 85 -96 60z"/>
<path d="M3482 4035 c-11 -14 -24 -25 -30 -25 -5 0 -15 -14 -22 -30 -7 -17
-24 -40 -39 -53 -23 -20 -60 -83 -75 -129 -3 -10 0 -31 6 -48 8 -25 14 -29 32
-24 11 4 35 23 51 43 17 19 38 44 48 53 9 10 17 24 17 31 0 8 9 22 20 32 11
10 20 23 20 28 0 6 6 18 14 26 20 24 36 97 23 110 -18 18 -44 12 -65 -14z"/>
<path d="M1258 3880 c-21 -13 -21 -66 -1 -99 9 -14 13 -35 9 -52 -3 -15 -1
-31 4 -34 6 -3 10 -21 10 -39 0 -42 34 -86 66 -86 28 0 44 30 37 70 -2 14 -4
34 -5 45 0 11 -9 46 -19 78 -11 31 -19 68 -19 80 0 16 -9 28 -25 35 -31 14
-35 14 -57 2z"/>
<path d="M2426 3727 c-14 -11 -19 -29 -20 -88 -1 -41 -5 -80 -9 -86 -5 -7 -3
-22 4 -34 6 -12 9 -33 6 -48 -4 -17 1 -35 14 -51 l19 -25 25 30 c19 23 25 42
26 85 1 30 2 89 3 130 1 41 -3 81 -8 88 -11 16 -37 15 -60 -1z"/>
<path d="M2968 3703 c-34 -5 -42 -15 -67 -87 -11 -32 -27 -66 -34 -75 -7 -9
-20 -36 -27 -59 -15 -49 -8 -70 28 -83 18 -7 26 -2 47 29 14 20 25 42 25 48 0
6 7 17 15 24 8 7 15 21 15 31 0 11 4 27 9 37 29 57 51 111 51 126 0 16 -8 17
-62 9z"/>
<path d="M3922 3695 c-13 -7 -33 -21 -45 -31 -12 -11 -39 -28 -60 -39 -21 -11
-62 -44 -91 -72 -40 -40 -53 -59 -52 -80 1 -25 5 -28 37 -31 35 -3 76 21 134
76 11 10 35 27 53 37 17 11 32 25 32 32 0 7 4 13 9 13 5 0 19 16 31 35 17 27
19 38 10 55 -12 23 -25 24 -58 5z"/>
<path d="M1916 3608 c-11 -18 -13 -39 -6 -103 5 -44 11 -88 15 -97 18 -45 68
-22 79 37 6 29 -3 90 -21 145 -2 8 -4 17 -3 19 3 6 -24 21 -37 21 -7 0 -19
-10 -27 -22z"/>
<path d="M923 3573 c-31 -21 -29 -32 12 -80 19 -23 35 -44 35 -48 0 -19 77
-104 95 -104 32 -1 48 15 42 40 -3 13 -8 35 -11 48 -6 25 -20 43 -90 119 -44
46 -51 48 -83 25z"/>
<path d="M1494 3455 c-4 -16 2 -41 16 -69 12 -25 19 -50 15 -56 -4 -6 -3 -16
2 -23 5 -7 16 -32 23 -57 17 -58 27 -70 56 -70 30 0 37 26 24 86 -6 27 -12 61
-12 77 -1 15 -4 27 -7 27 -3 0 -12 19 -19 42 -18 56 -29 68 -63 68 -22 0 -30
-6 -35 -25z"/>
<path d="M3443 3455 c-50 -35 -172 -167 -179 -192 -13 -49 30 -58 80 -17 17
14 44 35 59 47 16 12 53 46 84 74 50 48 54 55 46 80 -12 36 -47 39 -90 8z"/>
<path d="M1958 3303 c-23 -28 -21 -110 7 -198 14 -43 29 -82 33 -85 4 -3 12
-14 18 -25 12 -22 51 -32 65 -18 6 6 -1 51 -16 114 -14 57 -28 128 -30 157 -3
30 -7 58 -10 63 -10 15 -51 10 -67 -8z"/>
<path d="M2358 3259 c-15 -8 -16 -22 -12 -111 3 -56 9 -111 14 -123 11 -30 45
-37 71 -16 17 14 20 27 19 76 -3 160 -30 211 -92 174z"/>
<path d="M4135 3202 c-2 -2 -18 -3 -36 -4 -51 0 -161 -45 -182 -74 -10 -13
-17 -37 -15 -52 3 -24 7 -27 33 -24 17 2 36 9 44 15 8 7 28 13 45 14 43 2 85
12 123 29 17 8 37 14 45 14 8 0 24 9 36 20 18 17 20 25 12 40 -6 11 -16 21
-23 21 -32 3 -79 4 -82 1z"/>
<path d="M2959 3149 c-16 -17 -32 -42 -35 -55 -3 -13 -10 -24 -15 -24 -5 0 -9
-13 -9 -30 0 -23 5 -31 25 -36 39 -10 110 57 118 111 10 70 -34 88 -84 34z"/>
<path d="M1147 3123 c-4 -3 -7 -19 -7 -34 0 -21 9 -33 35 -49 19 -12 35 -27
35 -34 0 -13 49 -35 68 -28 6 2 12 18 12 35 0 54 -113 141 -143 110z"/>
<path d="M680 3054 c-12 -30 -10 -32 60 -105 52 -53 73 -63 101 -48 28 15 22
70 -8 84 -13 5 -23 13 -23 17 0 4 -17 23 -37 43 -46 42 -80 45 -93 9z"/>
<path d="M1468 2969 c-21 -10 -42 -28 -48 -39 -6 -11 -19 -20 -28 -20 -17 0
-69 -86 -58 -97 2 -3 -1 -21 -8 -41 -19 -57 -13 -228 10 -277 29 -63 105 -135
142 -135 30 0 42 14 42 50 0 10 -3 20 -7 22 -14 6 -54 68 -60 91 -29 123 -28
263 2 280 8 4 15 16 15 26 0 17 15 26 74 45 10 4 25 1 33 -5 7 -7 16 -9 20 -6
3 4 18 -2 33 -13 16 -11 32 -20 37 -20 12 0 73 -120 73 -142 0 -21 33 -40 63
-36 19 3 22 10 23 48 1 25 -2 50 -6 55 -4 6 -13 26 -19 47 -7 20 -27 53 -46
73 -19 20 -35 41 -35 46 0 5 -7 9 -15 9 -8 0 -15 4 -15 10 0 17 -87 48 -137
48 -28 0 -63 -7 -85 -19z"/>
<path d="M3655 2965 c-17 -6 -36 -20 -44 -29 -12 -15 -12 -19 2 -33 23 -23
279 -29 302 -7 8 8 15 20 15 24 0 16 -49 42 -66 36 -9 -4 -23 -1 -30 5 -8 6
-24 9 -37 5 -13 -3 -27 -3 -31 1 -12 12 -81 11 -111 -2z m62 -41 c-3 -3 -12
-4 -19 -1 -8 3 -5 6 6 6 11 1 17 -2 13 -5z"/>
<path d="M3436 2951 c-4 -5 -19 -9 -34 -9 -25 1 -98 -31 -111 -49 -3 -4 -22
-16 -42 -27 -21 -10 -45 -33 -55 -52 -10 -19 -24 -34 -32 -34 -7 0 -17 -11
-22 -24 -4 -13 -20 -32 -34 -44 -14 -11 -26 -25 -26 -30 0 -6 -6 -15 -12 -19
-20 -12 -37 -48 -29 -61 21 -34 103 -19 122 22 6 13 21 29 33 35 11 7 32 27
45 45 14 18 40 43 59 57 19 13 43 32 53 42 10 9 28 17 38 17 11 0 23 5 26 10
16 26 43 8 71 -47 46 -92 37 -164 -30 -229 -28 -27 -139 -87 -198 -107 -19 -7
-23 -33 -9 -55 18 -30 221 20 258 62 12 14 29 26 38 26 9 0 19 8 22 18 4 9 20
33 36 53 24 31 29 47 32 103 2 47 -2 71 -11 81 -8 7 -14 21 -14 29 0 9 -4 16
-8 16 -5 0 -7 13 -4 29 3 20 -2 35 -17 50 -12 12 -21 25 -21 29 0 32 -109 87
-124 63z"/>
<path d="M2661 2891 c-19 -35 -61 -173 -55 -182 3 -5 0 -25 -7 -44 -11 -30
-11 -37 6 -55 10 -11 29 -20 42 -20 24 0 39 24 50 80 3 14 7 36 10 50 3 14 6
39 8 55 1 17 6 38 9 48 15 42 15 49 3 67 -15 25 -53 26 -66 1z"/>
<path d="M2368 2853 c-15 -35 -17 -182 -3 -197 5 -7 15 -21 21 -31 6 -11 23
-21 38 -23 20 -3 28 2 35 21 10 24 -2 107 -19 138 -5 10 -5 20 1 26 15 15 0
61 -24 78 -30 21 -36 19 -49 -12z"/>
<path d="M2087 2853 c-9 -15 -10 -68 -3 -120 8 -55 55 -133 80 -133 40 0 54
68 25 122 -7 13 -14 34 -15 47 -6 47 -34 91 -59 91 -13 0 -26 -3 -28 -7z"/>
<path d="M1847 2793 c-11 -10 -8 -81 3 -88 6 -3 10 -14 10 -23 1 -9 20 -39 44
-65 38 -42 48 -48 77 -45 28 2 33 7 31 23 -2 11 -3 30 -3 42 0 12 -12 32 -29
46 -16 14 -32 37 -36 51 -3 14 -10 26 -14 26 -5 0 -12 9 -15 20 -6 20 -53 29
-68 13z"/>
<path d="M2910 2776 c-5 -7 -7 -16 -3 -19 3 -4 2 -7 -3 -7 -18 0 -74 -127 -74
-169 0 -38 19 -48 61 -31 52 22 106 160 80 207 -13 25 -47 35 -61 19z"/>
<path d="M4150 2758 c0 -5 -12 -7 -27 -4 -41 9 -55 -5 -51 -50 l3 -39 55 1
c88 3 193 11 223 19 39 10 37 48 -3 69 -35 17 -200 21 -200 4z"/>
<path d="M983 2733 c-53 -10 -26 -73 43 -97 45 -15 159 -18 187 -4 20 10 23
41 5 55 -19 15 -101 33 -147 33 -23 0 -41 5 -41 10 0 10 -8 11 -47 3z"/>
<path d="M3647 2600 c-12 -18 -13 -26 -4 -41 21 -34 117 -51 151 -26 36 27
-11 70 -92 83 -33 5 -42 3 -55 -16z"/>
<path d="M464 2525 c-88 -37 -43 -71 148 -110 81 -17 161 -8 166 17 7 37 -43
65 -146 82 -53 9 -106 19 -117 21 -11 2 -34 -2 -51 -10z"/>
<path d="M1125 2389 c-44 -5 -96 -16 -115 -24 -20 -9 -44 -17 -53 -19 -35 -5
-62 -68 -33 -79 16 -7 175 19 197 32 9 5 25 7 36 5 11 -3 38 4 61 16 38 20 41
24 30 43 -11 22 -28 38 -38 36 -3 -1 -41 -5 -85 -10z"/>
<path d="M3344 2334 c-21 -8 -40 -14 -41 -14 -9 0 -1 -59 10 -68 20 -17 184
-27 202 -12 27 22 18 56 -21 79 -20 12 -42 20 -48 18 -6 -2 -23 -1 -37 3 -15
5 -42 2 -65 -6z"/>
<path d="M1377 2293 c-5 -26 0 -40 47 -130 10 -18 24 -33 32 -33 8 0 14 -8 14
-18 0 -32 73 -56 83 -28 10 25 -33 141 -54 148 -6 2 -21 22 -34 43 -17 31 -28
41 -52 43 -26 3 -31 -1 -36 -25z"/>
<path d="M3708 2279 c-22 -12 -24 -52 -4 -68 16 -13 167 -21 205 -11 37 9 51
38 27 56 -11 8 -30 14 -43 14 -13 0 -23 3 -23 8 0 11 -143 12 -162 1z"/>
<path d="M4146 2251 c-39 -8 -53 -32 -38 -65 10 -22 17 -25 66 -25 31 0 64 -2
75 -6 10 -3 69 -14 131 -24 110 -17 114 -17 132 1 10 10 18 24 18 31 0 16 -36
47 -55 47 -9 0 -26 6 -38 14 -12 8 -42 14 -67 15 -25 0 -76 5 -115 10 -38 6
-72 10 -75 10 -3 -1 -18 -4 -34 -8z"/>
<path d="M2042 2213 c-25 -10 -53 -91 -46 -135 6 -37 36 -78 57 -78 22 0 67
43 67 64 0 12 4 26 9 32 4 5 6 28 3 52 -3 34 -10 45 -33 57 -30 16 -36 17 -57
8z"/>
<path d="M2795 2163 c-11 -16 -20 -53 -22 -90 -4 -57 -2 -65 19 -83 12 -11 32
-19 44 -20 26 0 58 34 51 54 -4 9 -1 18 4 22 7 4 9 26 4 62 -10 77 -13 82 -50
82 -25 0 -37 -7 -50 -27z"/>
<path d="M3362 2124 c-34 -24 -27 -47 21 -66 53 -22 111 -23 131 -2 20 19 20
20 -1 55 -16 26 -22 29 -73 29 -34 0 -64 -6 -78 -16z"/>
<path d="M1328 2026 c-10 -7 -18 -18 -18 -25 0 -17 31 -61 43 -61 6 0 18 -6
26 -13 9 -8 31 -20 49 -27 29 -11 35 -10 52 5 20 19 27 55 11 55 -5 0 -12 9
-16 19 -5 18 -89 61 -117 61 -7 0 -21 -7 -30 -14z"/>
<path d="M705 2022 c-2 -2 -38 -6 -81 -9 -96 -6 -124 -25 -105 -72 10 -23 20
-30 47 -33 20 -2 38 0 40 4 3 5 28 6 55 2 34 -5 54 -3 64 6 9 7 37 13 62 12
72 -1 119 44 81 76 -12 9 -155 21 -163 14z"/>
<path d="M1014 2018 c-70 -18 -66 -71 7 -83 66 -11 166 -8 196 7 39 18 41 50
6 65 -36 15 -169 22 -209 11z"/>
<path d="M3360 2001 c-17 -32 -12 -39 43 -71 60 -34 92 -38 106 -12 14 27 -10
57 -64 82 -55 25 -72 25 -85 1z"/>
<path d="M2400 1989 c-36 -13 -60 -57 -48 -89 12 -32 38 -60 63 -70 35 -13
122 9 140 37 20 30 11 84 -17 110 -22 20 -97 26 -138 12z"/>
<path d="M3704 1903 c-9 -35 4 -54 57 -80 69 -35 189 -52 208 -29 20 24 9 61
-19 64 -13 2 -33 10 -44 18 -11 8 -30 14 -41 14 -22 0 -91 23 -101 33 -4 4
-18 7 -30 7 -17 0 -25 -7 -30 -27z"/>
<path d="M4050 1885 c-13 -34 -13 -33 11 -63 11 -15 42 -34 67 -44 26 -9 67
-24 92 -33 25 -10 79 -25 120 -35 79 -19 100 -15 100 20 0 37 -130 117 -203
124 -18 2 -54 13 -80 25 -83 36 -95 37 -107 6z"/>
<path d="M1283 1790 c-13 -11 -23 -25 -23 -31 0 -14 62 -49 88 -49 12 0 22 -4
22 -10 0 -14 43 -13 58 2 35 35 -10 88 -88 103 -28 5 -40 2 -57 -15z"/>
<path d="M955 1630 c-38 -4 -82 -12 -97 -18 -15 -6 -35 -9 -44 -5 -20 7 -34
-13 -34 -49 0 -31 10 -39 48 -40 62 0 186 12 191 19 3 4 12 8 19 9 29 2 33 5
43 31 9 23 7 30 -13 45 -13 10 -27 17 -33 16 -5 0 -41 -4 -80 -8z"/>
<path d="M1335 1614 c-16 -25 -16 -27 4 -48 13 -14 18 -29 15 -44 -4 -15 -1
-24 10 -28 9 -3 16 -14 16 -25 0 -10 11 -30 25 -45 14 -15 25 -31 25 -35 0 -5
7 -9 15 -9 8 0 15 -6 15 -13 0 -9 -15 -14 -48 -15 -26 0 -59 -5 -73 -10 -17
-7 -30 -6 -42 3 -32 24 -127 -7 -127 -41 0 -17 41 -44 72 -48 12 -1 31 -6 41
-11 10 -4 37 -4 60 0 23 4 69 9 102 11 33 1 71 7 85 11 28 11 60 6 60 -8 0 -5
9 -9 19 -9 11 0 23 -4 26 -10 3 -5 16 -10 27 -10 11 0 35 -9 53 -20 23 -14 53
-21 98 -22 71 -2 100 11 95 46 -3 20 -32 32 -103 41 -16 2 -48 13 -70 25 -21
11 -45 20 -52 20 -7 0 -13 4 -13 9 0 5 -17 16 -37 24 -59 24 -173 146 -193
207 -10 30 -61 80 -82 80 -3 0 -13 -12 -23 -26z"/>
<path d="M3392 1606 c-9 -20 -7 -27 17 -50 31 -30 62 -33 85 -10 25 25 16 46
-29 70 -39 20 -60 17 -73 -10z"/>
<path d="M3427 1477 c-16 -30 -138 -114 -202 -140 -11 -4 -26 -14 -35 -21 -13
-11 -47 -23 -120 -42 -14 -3 -38 -12 -55 -19 -16 -7 -46 -16 -66 -19 -20 -4
-49 -17 -64 -30 -27 -23 -27 -24 -9 -51 16 -25 21 -27 67 -21 27 4 68 14 91
22 40 15 93 30 149 41 16 3 31 12 34 19 3 8 15 14 27 14 25 0 86 35 86 50 0 5
7 10 15 10 8 0 31 11 51 25 47 32 60 31 78 -2 26 -51 60 -81 98 -88 29 -6 38
-3 46 12 11 20 5 73 -9 73 -4 0 -20 11 -34 24 -17 16 -41 26 -66 28 l-39 3 20
37 c24 46 25 71 4 92 -24 25 -48 19 -67 -17z"/>
<path d="M3901 1467 c-14 -14 -14 -30 1 -62 7 -17 17 -24 26 -20 9 3 18 2 21
-2 16 -21 110 -62 137 -59 42 4 46 48 8 83 -62 57 -164 89 -193 60z"/>
<path d="M1514 1246 c-10 -25 5 -83 22 -90 8 -3 12 -11 9 -17 -7 -11 23 -89
35 -89 3 0 12 -15 18 -34 7 -19 37 -56 67 -84 47 -42 62 -50 96 -50 76 -1 146
56 171 140 8 29 8 41 -2 53 -21 25 -44 17 -76 -25 -17 -22 -43 -49 -57 -60
l-26 -21 -31 22 c-16 13 -30 29 -30 36 0 7 -3 13 -8 13 -9 0 -72 95 -72 109 0
14 -60 101 -70 101 -5 0 -15 3 -24 6 -10 4 -18 0 -22 -10z"/>
<path d="M2026 1242 c-3 -5 -2 -22 2 -38 6 -23 22 -36 73 -61 35 -18 70 -33
77 -33 7 0 20 -4 30 -9 9 -4 38 -15 64 -24 44 -15 47 -15 66 6 25 27 15 45
-43 74 -22 10 -49 24 -60 30 -11 5 -38 18 -60 28 -22 9 -48 21 -57 26 -22 11
-85 12 -92 1z"/>
<path d="M2346 1224 c-3 -9 -3 -20 0 -25 9 -15 82 -59 98 -59 7 0 19 -7 26
-15 15 -19 96 -21 103 -2 11 30 -25 63 -87 81 -33 9 -71 21 -84 26 -33 14 -49
12 -56 -6z"/>
<path d="M3259 1205 c-14 -7 -37 -38 -52 -69 -15 -30 -33 -59 -40 -63 -17 -11
-77 -89 -77 -100 0 -5 -14 -20 -31 -32 -37 -28 -40 -26 -88 71 -27 54 -43 75
-64 82 -21 8 -31 6 -42 -5 -17 -16 -9 -55 21 -111 8 -14 14 -35 14 -45 0 -10
9 -26 20 -36 11 -9 20 -23 20 -32 0 -8 12 -21 28 -29 22 -12 36 -12 75 -2 39
10 59 25 108 77 33 35 65 73 70 84 9 21 17 35 38 70 21 37 51 100 51 111 0 5
-6 18 -12 27 -11 14 -16 14 -39 2z"/>
</g>
</svg>
